<svg id="visual" viewBox="0 0 1500 200" width="1500" height="200" xmlns="http://www.w3.org/2000/svg" xmlns:xlink="http://www.w3.org/1999/xlink" version="1.1"><rect x="0" y="0" width="1500" height="200" fill="#000"></rect><path d="M0 108L115 79L231 91L346 103L462 83L577 44L692 118L808 112L923 110L1038 50L1154 129L1269 130L1385 71L1500 114L1500 201L1385 201L1269 201L1154 201L1038 201L923 201L808 201L692 201L577 201L462 201L346 201L231 201L115 201L0 201Z" fill="#528998"></path><path d="M0 107L115 142L231 139L346 126L462 104L577 107L692 118L808 139L923 146L1038 100L1154 129L1269 89L1385 85L1500 147L1500 201L1385 201L1269 201L1154 201L1038 201L923 201L808 201L692 201L577 201L462 201L346 201L231 201L115 201L0 201Z" fill="#a9c3ca"></path><path d="M0 167L115 128L231 173L346 155L462 134L577 168L692 142L808 145L923 134L1038 162L1154 139L1269 128L1385 125L1500 138L1500 201L1385 201L1269 201L1154 201L1038 201L923 201L808 201L692 201L577 201L462 201L346 201L231 201L115 201L0 201Z" fill="#ffffff"></path></svg>