<svg id="visual" viewBox="0 0 900 600" width="900" height="600" xmlns="http://www.w3.org/2000/svg" xmlns:xlink="http://www.w3.org/1999/xlink" version="1.1"><path d="M0 82L75 60L150 105L225 62L300 78L375 73L450 107L525 109L600 55L675 76L750 116L825 50L900 116L900 0L825 0L750 0L675 0L600 0L525 0L450 0L375 0L300 0L225 0L150 0L75 0L0 0Z" fill="#1f7a8c"></path><path d="M0 66L75 74L150 79L225 93L300 59L375 68L450 59L525 39L600 95L675 62L750 98L825 97L900 87L900 0L825 0L750 0L675 0L600 0L525 0L450 0L375 0L300 0L225 0L150 0L75 0L0 0Z" fill="#0d4b61"></path><path d="M0 65L75 30L150 31L225 24L300 32L375 45L450 63L525 48L600 39L675 39L750 22L825 39L900 58L900 0L825 0L750 0L675 0L600 0L525 0L450 0L375 0L300 0L225 0L150 0L75 0L0 0Z" fill="#032134"></path></svg>