<svg id="visual" viewBox="0 0 900 600" width="900" height="200" xmlns="http://www.w3.org/2000/svg" xmlns:xlink="http://www.w3.org/1999/xlink" version="1.1"><path d="M0 169L75 146L150 131L225 155L300 124L375 164L450 127L525 136L600 158L675 125L750 139L825 140L900 149L900 0L825 0L750 0L675 0L600 0L525 0L450 0L375 0L300 0L225 0L150 0L75 0L0 0Z" fill="#a7233a"></path><path d="M0 104L75 151L150 118L225 159L300 117L375 134L450 130L525 98L600 162L675 126L750 119L825 101L900 100L900 0L825 0L750 0L675 0L600 0L525 0L450 0L375 0L300 0L225 0L150 0L75 0L0 0Z" fill="#7e1d51"></path><path d="M0 114L75 105L150 113L225 69L300 91L375 115L450 74L525 115L600 108L675 112L750 81L825 87L900 115L900 0L825 0L750 0L675 0L600 0L525 0L450 0L375 0L300 0L225 0L150 0L75 0L0 0Z" fill="#4a2352"></path><path d="M0 55L75 85L150 56L225 89L300 76L375 52L450 59L525 50L600 92L675 52L750 63L825 65L900 74L900 0L825 0L750 0L675 0L600 0L525 0L450 0L375 0L300 0L225 0L150 0L75 0L0 0Z" fill="#1a1f3f"></path><path d="M0 55L75 25L150 34L225 43L300 25L375 50L450 36L525 39L600 56L675 20L750 34L825 25L900 42L900 0L825 0L750 0L675 0L600 0L525 0L450 0L375 0L300 0L225 0L150 0L75 0L0 0Z" fill="#001220"></path></svg>