<svg id="visual" viewBox="0 0 900 600" width="900" height="600" xmlns="http://www.w3.org/2000/svg" xmlns:xlink="http://www.w3.org/1999/xlink" version="1.1"><path d="M0 433L113 363L225 334L338 454L450 445L563 322L675 424L788 347L900 369L900 601L788 601L675 601L563 601L450 601L338 601L225 601L113 601L0 601Z" fill="#1f7a8c"></path><path d="M0 411L113 408L225 443L338 431L450 375L563 438L675 373L788 365L900 493L900 601L788 601L675 601L563 601L450 601L338 601L225 601L113 601L0 601Z" fill="#16677b"></path><path d="M0 447L113 419L225 517L338 491L450 444L563 472L675 407L788 504L900 417L900 601L788 601L675 601L563 601L450 601L338 601L225 601L113 601L0 601Z" fill="#10546a"></path><path d="M0 478L113 471L225 470L338 473L450 510L563 479L675 486L788 500L900 480L900 601L788 601L675 601L563 601L450 601L338 601L225 601L113 601L0 601Z" fill="#0b4258"></path><path d="M0 505L113 486L225 545L338 549L450 496L563 541L675 529L788 502L900 510L900 601L788 601L675 601L563 601L450 601L338 601L225 601L113 601L0 601Z" fill="#063146"></path><path d="M0 586L113 536L225 571L338 554L450 542L563 565L675 559L788 553L900 574L900 601L788 601L675 601L563 601L450 601L338 601L225 601L113 601L0 601Z" fill="#032134"></path></svg>