<svg id="visual" viewBox="0 0 1500 150" width="1500" height="150" xmlns="http://www.w3.org/2000/svg" xmlns:xlink="http://www.w3.org/1999/xlink" version="1.1"><rect x="0" y="0" width="1500" height="150" fill="#E5E7EB"></rect><path d="M0 113L107 95L214 82L321 127L429 98L536 130L643 93L750 103L857 77L964 84L1071 112L1179 116L1286 78L1393 100L1500 93L1500 151L1393 151L1286 151L1179 151L1071 151L964 151L857 151L750 151L643 151L536 151L429 151L321 151L214 151L107 151L0 151Z" fill="#ffffff"></path><path d="M0 101L107 110L214 130L321 94L429 104L536 134L643 138L750 127L857 99L964 95L1071 91L1179 104L1286 107L1393 114L1500 93L1500 151L1393 151L1286 151L1179 151L1071 151L964 151L857 151L750 151L643 151L536 151L429 151L321 151L214 151L107 151L0 151Z" fill="#777777"></path><path d="M0 135L107 128L214 124L321 114L429 126L536 135L643 134L750 124L857 134L964 144L1071 122L1179 122L1286 120L1393 138L1500 126L1500 151L1393 151L1286 151L1179 151L1071 151L964 151L857 151L750 151L643 151L536 151L429 151L321 151L214 151L107 151L0 151Z" fill="#000000"></path></svg>