<svg id="visual" viewBox="0 0 1500 150" width="1500" height="150" xmlns="http://www.w3.org/2000/svg" xmlns:xlink="http://www.w3.org/1999/xlink" version="1.1"><rect x="0" y="0" width="1500" height="150" fill="#E5E7EB"></rect><path d="M0 61L107 59L214 38L321 78L429 27L536 62L643 25L750 21L857 18L964 44L1071 72L1179 30L1286 47L1393 48L1500 20L1500 0L1393 0L1286 0L1179 0L1071 0L964 0L857 0L750 0L643 0L536 0L429 0L321 0L214 0L107 0L0 0Z" fill="#ffffff"></path><path d="M0 17L107 44L214 45L321 21L429 14L536 42L643 49L750 57L857 14L964 53L1071 37L1179 16L1286 59L1393 18L1500 29L1500 0L1393 0L1286 0L1179 0L1071 0L964 0L857 0L750 0L643 0L536 0L429 0L321 0L214 0L107 0L0 0Z" fill="#777777"></path><path d="M0 21L107 24L214 11L321 19L429 8L536 28L643 10L750 24L857 32L964 37L1071 8L1179 9L1286 16L1393 30L1500 33L1500 0L1393 0L1286 0L1179 0L1071 0L964 0L857 0L750 0L643 0L536 0L429 0L321 0L214 0L107 0L0 0Z" fill="#000000"></path></svg>