<svg id="visual" viewBox="0 0 1500 200" width="1500" height="200" xmlns="http://www.w3.org/2000/svg" xmlns:xlink="http://www.w3.org/1999/xlink" version="1.1"><rect x="0" y="0" width="1500" height="200" fill="#000"></rect><path d="M0 94L115 111L231 72L346 79L462 85L577 147L692 148L808 128L923 88L1038 74L1154 143L1269 75L1385 140L1500 150L1500 0L1385 0L1269 0L1154 0L1038 0L923 0L808 0L692 0L577 0L462 0L346 0L231 0L115 0L0 0Z" fill="#528998"></path><path d="M0 80L115 97L231 69L346 45L462 103L577 107L692 86L808 91L923 100L1038 100L1154 108L1269 80L1385 107L1500 48L1500 0L1385 0L1269 0L1154 0L1038 0L923 0L808 0L692 0L577 0L462 0L346 0L231 0L115 0L0 0Z" fill="#a9c3ca"></path><path d="M0 58L115 43L231 59L346 46L462 31L577 30L692 60L808 27L923 37L1038 57L1154 69L1269 55L1385 67L1500 26L1500 0L1385 0L1269 0L1154 0L1038 0L923 0L808 0L692 0L577 0L462 0L346 0L231 0L115 0L0 0Z" fill="#ffffff"></path></svg>